<mxfile host="65bd71144e">
    <diagram id="NdiB5QJQgp2t0jHNZVOh" name="Page-1">
        <mxGraphModel dx="1430" dy="1468" grid="0" gridSize="10" guides="1" tooltips="1" connect="1" arrows="1" fold="1" page="1" pageScale="1" pageWidth="827" pageHeight="1169" math="0" shadow="0">
            <root>
                <mxCell id="0"/>
                <mxCell id="1" parent="0"/>
                <mxCell id="2" value="&lt;font style=&quot;font-size: 12px&quot;&gt;&lt;span class=&quot;markedContent&quot; id=&quot;page14R_mcid0&quot;&gt;&lt;span style=&quot;left: 259.074px ; top: 23.8281px ; font-family: sans-serif ; transform: scalex(0.999633)&quot; dir=&quot;ltr&quot;&gt;Написать программу, которая из имеющегося массива строк формирует&lt;/span&gt;&lt;/span&gt;&lt;span class=&quot;markedContent&quot; id=&quot;page14R_mcid1&quot;&gt;&lt;br&gt;&lt;span style=&quot;left: 256.844px ; top: 46.622px ; font-family: sans-serif ; transform: scalex(0.999759)&quot; dir=&quot;ltr&quot;&gt;новый массив из строк, длина которых меньше, либо равна 3 символам.&lt;/span&gt;&lt;/span&gt;&lt;span class=&quot;markedContent&quot; id=&quot;page14R_mcid2&quot;&gt;&lt;br&gt;&lt;span style=&quot;left: 270.809px ; top: 70.6155px ; font-family: sans-serif ; transform: scalex(0.999753)&quot; dir=&quot;ltr&quot;&gt;Первоначальный массив можно ввести с клавиатуры, либо задать на&lt;/span&gt;&lt;/span&gt;&lt;span class=&quot;markedContent&quot; id=&quot;page14R_mcid3&quot;&gt;&lt;br&gt;&lt;span style=&quot;left: 440.994px ; top: 93.4094px ; font-family: sans-serif ; transform: scalex(0.999671)&quot; dir=&quot;ltr&quot;&gt;старте выполнения алгоритма.&lt;/span&gt;&lt;/span&gt;&lt;/font&gt;" style="text;html=1;align=center;verticalAlign=middle;resizable=0;points=[];autosize=1;strokeColor=none;fillColor=none;" parent="1" vertex="1">
                    <mxGeometry x="-815" y="-1164" width="420" height="60" as="geometry"/>
                </mxCell>
                <mxCell id="5" value="" style="edgeStyle=none;html=1;" edge="1" parent="1" source="3" target="4">
                    <mxGeometry relative="1" as="geometry"/>
                </mxCell>
                <mxCell id="3" value="Start" style="ellipse;whiteSpace=wrap;html=1;" vertex="1" parent="1">
                    <mxGeometry x="-622" y="-1091" width="96" height="43" as="geometry"/>
                </mxCell>
                <mxCell id="7" value="" style="edgeStyle=none;html=1;" edge="1" parent="1" source="4" target="6">
                    <mxGeometry relative="1" as="geometry"/>
                </mxCell>
                <mxCell id="9" value="" style="edgeStyle=none;html=1;" edge="1" parent="1" source="4" target="8">
                    <mxGeometry relative="1" as="geometry"/>
                </mxCell>
                <mxCell id="4" value="string [] array" style="shape=parallelogram;perimeter=parallelogramPerimeter;whiteSpace=wrap;html=1;fixedSize=1;" vertex="1" parent="1">
                    <mxGeometry x="-628" y="-1025" width="112" height="36" as="geometry"/>
                </mxCell>
                <mxCell id="6" value="ptint(array)" style="whiteSpace=wrap;html=1;" vertex="1" parent="1">
                    <mxGeometry x="-487" y="-1023" width="102" height="32" as="geometry"/>
                </mxCell>
                <mxCell id="11" value="" style="edgeStyle=none;html=1;" edge="1" parent="1" source="8" target="10">
                    <mxGeometry relative="1" as="geometry"/>
                </mxCell>
                <mxCell id="8" value="string[] array1&lt;br&gt;count=0&lt;br&gt;index=0" style="shape=parallelogram;perimeter=parallelogramPerimeter;whiteSpace=wrap;html=1;fixedSize=1;" vertex="1" parent="1">
                    <mxGeometry x="-632" y="-966" width="120" height="60" as="geometry"/>
                </mxCell>
                <mxCell id="13" value="" style="edgeStyle=none;html=1;" edge="1" parent="1" source="10" target="12">
                    <mxGeometry relative="1" as="geometry"/>
                </mxCell>
                <mxCell id="18" style="edgeStyle=none;html=1;exitX=1;exitY=0.5;exitDx=0;exitDy=0;" edge="1" parent="1" source="10">
                    <mxGeometry relative="1" as="geometry">
                        <mxPoint x="-401" y="-833" as="targetPoint"/>
                        <Array as="points">
                            <mxPoint x="-499" y="-861"/>
                            <mxPoint x="-401" y="-861"/>
                        </Array>
                    </mxGeometry>
                </mxCell>
                <mxCell id="10" value="index&amp;lt;array.Lenght" style="rhombus;whiteSpace=wrap;html=1;" vertex="1" parent="1">
                    <mxGeometry x="-645" y="-871" width="146" height="76" as="geometry"/>
                </mxCell>
                <mxCell id="15" value="YES" style="edgeStyle=none;html=1;" edge="1" parent="1" source="12" target="14">
                    <mxGeometry relative="1" as="geometry"/>
                </mxCell>
                <mxCell id="17" value="NO" style="edgeStyle=none;html=1;exitX=1;exitY=0.5;exitDx=0;exitDy=0;" edge="1" parent="1" source="12">
                    <mxGeometry relative="1" as="geometry">
                        <mxPoint x="-498" y="-835" as="targetPoint"/>
                        <Array as="points">
                            <mxPoint x="-498" y="-724"/>
                            <mxPoint x="-455" y="-724"/>
                            <mxPoint x="-455" y="-835"/>
                        </Array>
                    </mxGeometry>
                </mxCell>
                <mxCell id="12" value="array[i]&amp;lt;=3" style="rhombus;whiteSpace=wrap;html=1;" vertex="1" parent="1">
                    <mxGeometry x="-609" y="-764" width="80" height="80" as="geometry"/>
                </mxCell>
                <mxCell id="16" style="edgeStyle=none;html=1;exitX=0.5;exitY=0;exitDx=0;exitDy=0;entryX=0;entryY=0.5;entryDx=0;entryDy=0;" edge="1" parent="1" source="14" target="10">
                    <mxGeometry relative="1" as="geometry">
                        <Array as="points">
                            <mxPoint x="-728" y="-833"/>
                        </Array>
                    </mxGeometry>
                </mxCell>
                <mxCell id="14" value="arra1[count]=array[i]" style="whiteSpace=wrap;html=1;" vertex="1" parent="1">
                    <mxGeometry x="-791" y="-750" width="126" height="48" as="geometry"/>
                </mxCell>
                <mxCell id="21" value="" style="edgeStyle=none;html=1;" edge="1" parent="1" source="19" target="20">
                    <mxGeometry relative="1" as="geometry"/>
                </mxCell>
                <mxCell id="19" value="print(arra)" style="rounded=0;whiteSpace=wrap;html=1;" vertex="1" parent="1">
                    <mxGeometry x="-429" y="-833" width="92" height="32" as="geometry"/>
                </mxCell>
                <mxCell id="20" value="END" style="ellipse;whiteSpace=wrap;html=1;rounded=0;" vertex="1" parent="1">
                    <mxGeometry x="-289" y="-843" width="66" height="46" as="geometry"/>
                </mxCell>
            </root>
        </mxGraphModel>
    </diagram>
</mxfile>